<?xml version="1.0" standalone="no"?><svg xmlns="http://www.w3.org/2000/svg" viewBox="0 0 1440 320"><path fill="#fdda0d" fill-opacity="1" d="M0,128L26.7,154.7C53.3,181,107,235,160,245.3C213.3,256,267,224,320,202.7C373.3,181,427,171,480,181.3C533.3,192,587,224,640,224C693.3,224,747,192,800,176C853.3,160,907,160,960,181.3C1013.3,203,1067,245,1120,229.3C1173.3,213,1227,139,1280,101.3C1333.3,64,1387,64,1413,64L1440,64L1440,320L1413.3,320C1386.7,320,1333,320,1280,320C1226.7,320,1173,320,1120,320C1066.7,320,1013,320,960,320C906.7,320,853,320,800,320C746.7,320,693,320,640,320C586.7,320,533,320,480,320C426.7,320,373,320,320,320C266.7,320,213,320,160,320C106.7,320,53,320,27,320L0,320Z"></path></svg>