<svg id="visual" viewBox="0 0 900 600" width="900" height="600" xmlns="http://www.w3.org/2000/svg" xmlns:xlink="http://www.w3.org/1999/xlink" version="1.1"><path d="M0 469L12.5 470C25 471 50 473 75 475C100 477 125 479 150 473.5C175 468 200 455 225 454.7C250 454.3 275 466.7 300 473.8C325 481 350 483 375 480.7C400 478.3 425 471.7 450 470.8C475 470 500 475 525 474C550 473 575 466 600 462.5C625 459 650 459 675 456.8C700 454.7 725 450.3 750 452.2C775 454 800 462 825 468.2C850 474.3 875 478.7 887.5 480.8L900 483L900 601L887.5 601C875 601 850 601 825 601C800 601 775 601 750 601C725 601 700 601 675 601C650 601 625 601 600 601C575 601 550 601 525 601C500 601 475 601 450 601C425 601 400 601 375 601C350 601 325 601 300 601C275 601 250 601 225 601C200 601 175 601 150 601C125 601 100 601 75 601C50 601 25 601 12.5 601L0 601Z" fill="#907a00"></path><path d="M0 482L12.5 482.8C25 483.7 50 485.3 75 486.2C100 487 125 487 150 490.8C175 494.7 200 502.3 225 506.2C250 510 275 510 300 505C325 500 350 490 375 489.5C400 489 425 498 450 502C475 506 500 505 525 503.5C550 502 575 500 600 501.5C625 503 650 508 675 507.7C700 507.3 725 501.7 750 498.2C775 494.7 800 493.3 825 494.3C850 495.3 875 498.7 887.5 500.3L900 502L900 601L887.5 601C875 601 850 601 825 601C800 601 775 601 750 601C725 601 700 601 675 601C650 601 625 601 600 601C575 601 550 601 525 601C500 601 475 601 450 601C425 601 400 601 375 601C350 601 325 601 300 601C275 601 250 601 225 601C200 601 175 601 150 601C125 601 100 601 75 601C50 601 25 601 12.5 601L0 601Z" fill="#b39903"></path><path d="M0 526L12.5 523.7C25 521.3 50 516.7 75 518.8C100 521 125 530 150 536.3C175 542.7 200 546.3 225 547.2C250 548 275 546 300 539.5C325 533 350 522 375 517C400 512 425 513 450 516.3C475 519.7 500 525.3 525 525.7C550 526 575 521 600 521.3C625 521.7 650 527.3 675 526.7C700 526 725 519 750 517C775 515 800 518 825 523.3C850 528.7 875 536.3 887.5 540.2L900 544L900 601L887.5 601C875 601 850 601 825 601C800 601 775 601 750 601C725 601 700 601 675 601C650 601 625 601 600 601C575 601 550 601 525 601C500 601 475 601 450 601C425 601 400 601 375 601C350 601 325 601 300 601C275 601 250 601 225 601C200 601 175 601 150 601C125 601 100 601 75 601C50 601 25 601 12.5 601L0 601Z" fill="#d7b907"></path><path d="M0 570L12.5 567.8C25 565.7 50 561.3 75 557.5C100 553.7 125 550.3 150 549C175 547.7 200 548.3 225 552.2C250 556 275 563 300 566C325 569 350 568 375 568.5C400 569 425 571 450 570.2C475 569.3 500 565.7 525 566.3C550 567 575 572 600 572C625 572 650 567 675 562.3C700 557.7 725 553.3 750 556.3C775 559.3 800 569.7 825 571.8C850 574 875 568 887.5 565L900 562L900 601L887.5 601C875 601 850 601 825 601C800 601 775 601 750 601C725 601 700 601 675 601C650 601 625 601 600 601C575 601 550 601 525 601C500 601 475 601 450 601C425 601 400 601 375 601C350 601 325 601 300 601C275 601 250 601 225 601C200 601 175 601 150 601C125 601 100 601 75 601C50 601 25 601 12.5 601L0 601Z" fill="#fdda0d"></path></svg>